<svg id="visual" viewBox="0 0 900 600" width="900" height="600" xmlns="http://www.w3.org/2000/svg" xmlns:xlink="http://www.w3.org/1999/xlink" version="1.1"><g stroke-width="1" stroke-linejoin="bevel"><path d="M429.1 300L492.9 279L428.1 239Z" fill="#19435d" stroke="#19435d"></path><path d="M492.9 279L483.9 198L428.1 239Z" fill="#15384f" stroke="#15384f"></path><path d="M350.3 211L347.3 297L428.1 239Z" fill="#297ea6" stroke="#297ea6"></path><path d="M428.1 239L347.3 297L429.1 300Z" fill="#19435d" stroke="#19435d"></path><path d="M382.1 145L350.3 211L428.1 239Z" fill="#15384f" stroke="#15384f"></path><path d="M492.9 279L550.7 195L483.9 198Z" fill="#297ea6" stroke="#297ea6"></path><path d="M402.1 382L479.9 389L429.1 300Z" fill="#1d4e6b" stroke="#1d4e6b"></path><path d="M429.1 300L479.9 389L492.9 279Z" fill="#0c2435" stroke="#0c2435"></path><path d="M492.9 279L586.7 274L550.7 195Z" fill="#19435d" stroke="#19435d"></path><path d="M351.3 352L402.1 382L429.1 300Z" fill="#00101c" stroke="#00101c"></path><path d="M347.3 297L351.3 352L429.1 300Z" fill="#0c2435" stroke="#0c2435"></path><path d="M541.7 387L586.7 274L492.9 279Z" fill="#277297" stroke="#277297"></path><path d="M550.7 195L504.9 145L483.9 198Z" fill="#0c2435" stroke="#0c2435"></path><path d="M483.9 198L382.1 145L428.1 239Z" fill="#297ea6" stroke="#297ea6"></path><path d="M504.9 145L382.1 145L483.9 198Z" fill="#112e42" stroke="#112e42"></path><path d="M382.1 145L356.3 164L350.3 211Z" fill="#0c2435" stroke="#0c2435"></path><path d="M479.9 389L541.7 387L492.9 279Z" fill="#246688" stroke="#246688"></path><path d="M550.7 195L543.7 150L504.9 145Z" fill="#297ea6" stroke="#297ea6"></path><path d="M552.7 106L543.7 150L637.5 179Z" fill="#00101c" stroke="#00101c"></path><path d="M429.1 479L510.9 436L479.9 389Z" fill="#246688" stroke="#246688"></path><path d="M479.9 389L510.9 436L541.7 387Z" fill="#0c2435" stroke="#0c2435"></path><path d="M480.9 74L381.1 100L382.1 145Z" fill="#112e42" stroke="#112e42"></path><path d="M382.1 145L381.1 100L356.3 164Z" fill="#15384f" stroke="#15384f"></path><path d="M480.9 74L382.1 145L504.9 145Z" fill="#00101c" stroke="#00101c"></path><path d="M356.3 164L274.5 228L350.3 211Z" fill="#205a7a" stroke="#205a7a"></path><path d="M350.3 211L274.5 228L347.3 297Z" fill="#00101c" stroke="#00101c"></path><path d="M347.3 297L269.5 365L351.3 352Z" fill="#0c2435" stroke="#0c2435"></path><path d="M243.5 181L274.5 228L356.3 164Z" fill="#205a7a" stroke="#205a7a"></path><path d="M625.5 466L627.5 345L541.7 387Z" fill="#1d4e6b" stroke="#1d4e6b"></path><path d="M541.7 387L627.5 345L586.7 274Z" fill="#246688" stroke="#246688"></path><path d="M637.5 179L543.7 150L550.7 195Z" fill="#19435d" stroke="#19435d"></path><path d="M637.5 179L550.7 195L654.5 209Z" fill="#15384f" stroke="#15384f"></path><path d="M543.7 150L552.7 106L504.9 145Z" fill="#205a7a" stroke="#205a7a"></path><path d="M552.7 106L480.9 74L504.9 145Z" fill="#15384f" stroke="#15384f"></path><path d="M627.5 345L656.5 284L586.7 274Z" fill="#00101c" stroke="#00101c"></path><path d="M654.5 209L550.7 195L586.7 274Z" fill="#112e42" stroke="#112e42"></path><path d="M229.5 328L269.5 365L347.3 297Z" fill="#19435d" stroke="#19435d"></path><path d="M351.3 352L327.3 463L402.1 382Z" fill="#205a7a" stroke="#205a7a"></path><path d="M402.1 382L429.1 479L479.9 389Z" fill="#081a28" stroke="#081a28"></path><path d="M656.5 284L654.5 209L586.7 274Z" fill="#0c2435" stroke="#0c2435"></path><path d="M327.3 463L429.1 479L402.1 382Z" fill="#1d4e6b" stroke="#1d4e6b"></path><path d="M465.9 531L555.7 473L510.9 436Z" fill="#081a28" stroke="#081a28"></path><path d="M510.9 436L555.7 473L541.7 387Z" fill="#00101c" stroke="#00101c"></path><path d="M309.3 86L243.5 181L356.3 164Z" fill="#277297" stroke="#277297"></path><path d="M274.5 228L229.5 328L347.3 297Z" fill="#19435d" stroke="#19435d"></path><path d="M269.5 365L327.3 463L351.3 352Z" fill="#15384f" stroke="#15384f"></path><path d="M185.6 234L229.5 328L274.5 228Z" fill="#205a7a" stroke="#205a7a"></path><path d="M269.5 365L219.5 423L327.3 463Z" fill="#205a7a" stroke="#205a7a"></path><path d="M307.3 0L309.3 86L381.1 100Z" fill="#1d4e6b" stroke="#1d4e6b"></path><path d="M381.1 100L309.3 86L356.3 164Z" fill="#1d4e6b" stroke="#1d4e6b"></path><path d="M555.7 473L625.5 466L541.7 387Z" fill="#297ea6" stroke="#297ea6"></path><path d="M766.4 283L729.4 229L656.5 284Z" fill="#297ea6" stroke="#297ea6"></path><path d="M432.1 538L465.9 531L429.1 479Z" fill="#19435d" stroke="#19435d"></path><path d="M429.1 479L465.9 531L510.9 436Z" fill="#19435d" stroke="#19435d"></path><path d="M555.7 473L580.7 511L625.5 466Z" fill="#081a28" stroke="#081a28"></path><path d="M327.3 463L432.1 538L429.1 479Z" fill="#1d4e6b" stroke="#1d4e6b"></path><path d="M509.9 0L429.1 0L480.9 74Z" fill="#19435d" stroke="#19435d"></path><path d="M480.9 74L429.1 0L381.1 100Z" fill="#205a7a" stroke="#205a7a"></path><path d="M154.6 119L185.6 234L243.5 181Z" fill="#19435d" stroke="#19435d"></path><path d="M243.5 181L185.6 234L274.5 228Z" fill="#1d4e6b" stroke="#1d4e6b"></path><path d="M748.4 89L645.5 76L637.5 179Z" fill="#15384f" stroke="#15384f"></path><path d="M637.5 179L645.5 76L552.7 106Z" fill="#112e42" stroke="#112e42"></path><path d="M553.7 0L509.9 0L480.9 74Z" fill="#1d4e6b" stroke="#1d4e6b"></path><path d="M632.5 509L580.7 511L595.7 600Z" fill="#246688" stroke="#246688"></path><path d="M465.9 531L580.7 511L555.7 473Z" fill="#1d4e6b" stroke="#1d4e6b"></path><path d="M553.7 0L480.9 74L552.7 106Z" fill="#0c2435" stroke="#0c2435"></path><path d="M766.4 283L656.5 284L740.4 403Z" fill="#246688" stroke="#246688"></path><path d="M656.5 284L729.4 229L654.5 209Z" fill="#297ea6" stroke="#297ea6"></path><path d="M654.5 209L764.4 136L637.5 179Z" fill="#15384f" stroke="#15384f"></path><path d="M186.6 382L219.5 423L269.5 365Z" fill="#00101c" stroke="#00101c"></path><path d="M327.3 463L298.3 514L432.1 538Z" fill="#246688" stroke="#246688"></path><path d="M186.6 382L269.5 365L229.5 328Z" fill="#081a28" stroke="#081a28"></path><path d="M645.5 76L553.7 0L552.7 106Z" fill="#112e42" stroke="#112e42"></path><path d="M263.5 509L298.3 514L327.3 463Z" fill="#081a28" stroke="#081a28"></path><path d="M160.6 305L186.6 382L229.5 328Z" fill="#19435d" stroke="#19435d"></path><path d="M185.6 234L160.6 305L229.5 328Z" fill="#081a28" stroke="#081a28"></path><path d="M475.9 600L580.7 511L465.9 531Z" fill="#15384f" stroke="#15384f"></path><path d="M580.7 511L632.5 509L625.5 466Z" fill="#19435d" stroke="#19435d"></path><path d="M740.4 403L656.5 284L627.5 345Z" fill="#1d4e6b" stroke="#1d4e6b"></path><path d="M193.6 444L263.5 509L219.5 423Z" fill="#112e42" stroke="#112e42"></path><path d="M219.5 423L263.5 509L327.3 463Z" fill="#277297" stroke="#277297"></path><path d="M422.1 600L475.9 600L432.1 538Z" fill="#246688" stroke="#246688"></path><path d="M429.1 0L307.3 0L381.1 100Z" fill="#277297" stroke="#277297"></path><path d="M309.3 86L240.5 43L243.5 181Z" fill="#112e42" stroke="#112e42"></path><path d="M307.3 0L240.5 43L309.3 86Z" fill="#15384f" stroke="#15384f"></path><path d="M185.6 234L72.8 234L160.6 305Z" fill="#0c2435" stroke="#0c2435"></path><path d="M740.4 403L627.5 345L625.5 466Z" fill="#246688" stroke="#246688"></path><path d="M706.4 0L647.5 0L645.5 76Z" fill="#1d4e6b" stroke="#1d4e6b"></path><path d="M186.6 382L193.6 444L219.5 423Z" fill="#081a28" stroke="#081a28"></path><path d="M97.8 387L193.6 444L186.6 382Z" fill="#1d4e6b" stroke="#1d4e6b"></path><path d="M726.4 472L740.4 403L625.5 466Z" fill="#081a28" stroke="#081a28"></path><path d="M645.5 76L647.5 0L553.7 0Z" fill="#1d4e6b" stroke="#1d4e6b"></path><path d="M764.4 136L654.5 209L729.4 229Z" fill="#297ea6" stroke="#297ea6"></path><path d="M422.1 600L432.1 538L346.3 600Z" fill="#277297" stroke="#277297"></path><path d="M432.1 538L475.9 600L465.9 531Z" fill="#277297" stroke="#277297"></path><path d="M346.3 600L432.1 538L298.3 514Z" fill="#205a7a" stroke="#205a7a"></path><path d="M240.5 43L154.6 119L243.5 181Z" fill="#297ea6" stroke="#297ea6"></path><path d="M818.2 159L764.4 136L729.4 229Z" fill="#081a28" stroke="#081a28"></path><path d="M632.5 509L726.4 472L625.5 466Z" fill="#15384f" stroke="#15384f"></path><path d="M740.4 403L810.2 300L766.4 283Z" fill="#277297" stroke="#277297"></path><path d="M752.4 506L726.4 472L632.5 509Z" fill="#081a28" stroke="#081a28"></path><path d="M764.4 136L748.4 89L637.5 179Z" fill="#081a28" stroke="#081a28"></path><path d="M307.3 0L238.5 0L240.5 43Z" fill="#00101c" stroke="#00101c"></path><path d="M240.5 43L135.6 95L154.6 119Z" fill="#277297" stroke="#277297"></path><path d="M244.5 600L298.3 514L263.5 509Z" fill="#1d4e6b" stroke="#1d4e6b"></path><path d="M244.5 600L346.3 600L298.3 514Z" fill="#112e42" stroke="#112e42"></path><path d="M830.2 387L810.2 300L740.4 403Z" fill="#205a7a" stroke="#205a7a"></path><path d="M832.2 219L818.2 159L729.4 229Z" fill="#112e42" stroke="#112e42"></path><path d="M475.9 600L595.7 600L580.7 511Z" fill="#19435d" stroke="#19435d"></path><path d="M157.6 0L135.6 95L240.5 43Z" fill="#00101c" stroke="#00101c"></path><path d="M154.6 119L84.8 171L185.6 234Z" fill="#0c2435" stroke="#0c2435"></path><path d="M748.4 89L706.4 0L645.5 76Z" fill="#00101c" stroke="#00101c"></path><path d="M56.8 293L97.8 387L160.6 305Z" fill="#205a7a" stroke="#205a7a"></path><path d="M160.6 305L97.8 387L186.6 382Z" fill="#081a28" stroke="#081a28"></path><path d="M193.6 444L152.6 500L263.5 509Z" fill="#15384f" stroke="#15384f"></path><path d="M112.8 479L152.6 500L193.6 444Z" fill="#277297" stroke="#277297"></path><path d="M764.4 136L843.2 99L748.4 89Z" fill="#19435d" stroke="#19435d"></path><path d="M748.4 89L790.2 0L706.4 0Z" fill="#246688" stroke="#246688"></path><path d="M832.2 219L729.4 229L766.4 283Z" fill="#0c2435" stroke="#0c2435"></path><path d="M734.4 600L752.4 506L632.5 509Z" fill="#205a7a" stroke="#205a7a"></path><path d="M726.4 472L805.2 470L740.4 403Z" fill="#205a7a" stroke="#205a7a"></path><path d="M810.2 300L832.2 219L766.4 283Z" fill="#297ea6" stroke="#297ea6"></path><path d="M98.8 99L84.8 171L154.6 119Z" fill="#1d4e6b" stroke="#1d4e6b"></path><path d="M595.7 600L646.5 600L632.5 509Z" fill="#277297" stroke="#277297"></path><path d="M84.8 171L72.8 234L185.6 234Z" fill="#246688" stroke="#246688"></path><path d="M178.6 600L244.5 600L263.5 509Z" fill="#112e42" stroke="#112e42"></path><path d="M805.2 470L830.2 387L740.4 403Z" fill="#19435d" stroke="#19435d"></path><path d="M810.2 300L900 331L832.2 219Z" fill="#00101c" stroke="#00101c"></path><path d="M135.6 95L98.8 99L154.6 119Z" fill="#205a7a" stroke="#205a7a"></path><path d="M91.8 0L98.8 99L135.6 95Z" fill="#277297" stroke="#277297"></path><path d="M72.8 234L56.8 293L160.6 305Z" fill="#0c2435" stroke="#0c2435"></path><path d="M0 225L56.8 293L72.8 234Z" fill="#205a7a" stroke="#205a7a"></path><path d="M0 225L72.8 234L84.8 171Z" fill="#1d4e6b" stroke="#1d4e6b"></path><path d="M238.5 0L157.6 0L240.5 43Z" fill="#277297" stroke="#277297"></path><path d="M97.8 387L112.8 479L193.6 444Z" fill="#297ea6" stroke="#297ea6"></path><path d="M152.6 500L178.6 600L263.5 509Z" fill="#1d4e6b" stroke="#1d4e6b"></path><path d="M108.8 518L112.8 479L0 514Z" fill="#15384f" stroke="#15384f"></path><path d="M806.2 515L805.2 470L752.4 506Z" fill="#0c2435" stroke="#0c2435"></path><path d="M752.4 506L805.2 470L726.4 472Z" fill="#112e42" stroke="#112e42"></path><path d="M900 131L843.2 99L818.2 159Z" fill="#00101c" stroke="#00101c"></path><path d="M818.2 159L843.2 99L764.4 136Z" fill="#1d4e6b" stroke="#1d4e6b"></path><path d="M900 198L818.2 159L832.2 219Z" fill="#112e42" stroke="#112e42"></path><path d="M0 419L112.8 479L97.8 387Z" fill="#19435d" stroke="#19435d"></path><path d="M112.8 479L108.8 518L152.6 500Z" fill="#19435d" stroke="#19435d"></path><path d="M900 394L900 331L830.2 387Z" fill="#297ea6" stroke="#297ea6"></path><path d="M794.2 600L806.2 515L752.4 506Z" fill="#0c2435" stroke="#0c2435"></path><path d="M843.2 99L790.2 0L748.4 89Z" fill="#15384f" stroke="#15384f"></path><path d="M108.8 518L178.6 600L152.6 500Z" fill="#00101c" stroke="#00101c"></path><path d="M646.5 600L734.4 600L632.5 509Z" fill="#081a28" stroke="#081a28"></path><path d="M900 394L830.2 387L900 457Z" fill="#297ea6" stroke="#297ea6"></path><path d="M830.2 387L900 331L810.2 300Z" fill="#205a7a" stroke="#205a7a"></path><path d="M900 331L900 198L832.2 219Z" fill="#205a7a" stroke="#205a7a"></path><path d="M843.2 99L900 66L790.2 0Z" fill="#277297" stroke="#277297"></path><path d="M157.6 0L91.8 0L135.6 95Z" fill="#15384f" stroke="#15384f"></path><path d="M0 154L0 225L84.8 171Z" fill="#00101c" stroke="#00101c"></path><path d="M0 154L84.8 171L98.8 99Z" fill="#15384f" stroke="#15384f"></path><path d="M56.8 293L0 358L97.8 387Z" fill="#112e42" stroke="#112e42"></path><path d="M0 225L0 315L56.8 293Z" fill="#1d4e6b" stroke="#1d4e6b"></path><path d="M900 457L830.2 387L805.2 470Z" fill="#277297" stroke="#277297"></path><path d="M0 315L0 358L56.8 293Z" fill="#15384f" stroke="#15384f"></path><path d="M900 198L900 131L818.2 159Z" fill="#0c2435" stroke="#0c2435"></path><path d="M0 66L0 154L98.8 99Z" fill="#19435d" stroke="#19435d"></path><path d="M734.4 600L794.2 600L752.4 506Z" fill="#246688" stroke="#246688"></path><path d="M806.2 515L900 457L805.2 470Z" fill="#205a7a" stroke="#205a7a"></path><path d="M0 600L111.8 600L108.8 518Z" fill="#081a28" stroke="#081a28"></path><path d="M108.8 518L111.8 600L178.6 600Z" fill="#205a7a" stroke="#205a7a"></path><path d="M0 358L0 419L97.8 387Z" fill="#246688" stroke="#246688"></path><path d="M900 534L900 457L806.2 515Z" fill="#19435d" stroke="#19435d"></path><path d="M900 131L900 66L843.2 99Z" fill="#15384f" stroke="#15384f"></path><path d="M91.8 0L0 66L98.8 99Z" fill="#246688" stroke="#246688"></path><path d="M0 419L0 514L112.8 479Z" fill="#15384f" stroke="#15384f"></path><path d="M794.2 600L900 534L806.2 515Z" fill="#19435d" stroke="#19435d"></path><path d="M900 66L900 0L790.2 0Z" fill="#205a7a" stroke="#205a7a"></path><path d="M91.8 0L0 0L0 66Z" fill="#1d4e6b" stroke="#1d4e6b"></path><path d="M794.2 600L900 600L900 534Z" fill="#205a7a" stroke="#205a7a"></path><path d="M0 514L0 600L108.8 518Z" fill="#15384f" stroke="#15384f"></path></g></svg>